# xmcd CD database file
#
# Track frame offsets:
#	150
#	17812
#	40127
#	58472
#	79872
#	94802
#	120612
#	152287
#	181537
#	199730
#	217775
#	234235
#	262570
#	277282
#
# Disc length: 3989 seconds
#
# Revision: 0
# Processed by: cddbd v1.4PL0 Copyright (c) Steve Scherf et al.
# Submitted via: CDex 1.50Beta7
#
DISCID=af0f930e
DTITLE=Various Artist - Jazz Moments
DYEAR=1900
DGENRE=Jazz
TTITLE0=Young and Foolish-Bill Evans and Tony Bennett
TTITLE1=Theme for Ernie-John Coltrane
TTITLE2=It's a magic-Abbey Lincoln
TTITLE3=Polka Dots and Moonbeams-Wes Montgomery
TTITLE4=If You Could See Me Now-Tadd Dameron feat. Barbara Winfield
TTITLE5=Take the "A" Train-Duke Ellington Orchestra feat. Paul Gonsalves
TTITLE6=Night and Day-Ella Fitgerald
TTITLE7=You Don't Know What Love Is-Sonny Rollins
TTITLE8=Ill WInd-Sarah Vaughan with Count Basie Orchestra
TTITLE9=I've Grown Accustomed to Her Face-Stan Getz and Cal Tjader
TTITLE10=Dindi-Flora Purim
TTITLE11=I've Got It Bad(And That Ain't Good)-Red Garland
TTITLE12=Don't Get Around Much Anymore-Kenny Burrel feat. Ernie Adnrews
TTITLE13=Just You, Just Me-Chuck Mangione
EXTD=
EXTT0=
EXTT1=
EXTT2=
EXTT3=
EXTT4=
EXTT5=
EXTT6=
EXTT7=
EXTT8=
EXTT9=
EXTT10=
EXTT11=
EXTT12=
EXTT13=
PLAYORDER=
